<?xml version='1.0' encoding='UTF-8'?>
<svg xmlns="http://www.w3.org/2000/svg" xmlns:xlink="http://www.w3.org/1999/xlink" width="870" height="500" viewBox="0 0 870 500" role="img" aria-label="karthik subramanian — GitHub profile">
  <style>
    .serif { font-family: Georgia, 'Times New Roman', 'Iowan Old Style', serif; }
    .sans  { font-family: 'Helvetica Neue', Helvetica, Arial, 'Segoe UI', sans-serif; }
    .name  { fill:#1A1916; font-size:34px; letter-spacing:0.2px; }
    .role  { fill:#6E6A60; font-size:13.5px; }
    .klbl  { fill:#9A9488; font-size:10px; letter-spacing:1.4px; }
    .kval  { fill:#1A1916; font-size:13px; }
    .num   { fill:#1A1916; font-size:26px; font-variant-numeric:tabular-nums; }
    .slbl  { fill:#D97757; font-size:10px; letter-spacing:1.4px; }
    .sval  { fill:#34322B; font-size:12px; }
    .muted { fill:#6E6A60; font-size:11.5px; }
    .accent{ fill:#D97757; }

    .rocket { animation: drift 5.5s ease-in-out infinite; transform-box: fill-box; transform-origin: center; }
    .flame  { animation: flicker 0.9s ease-in-out infinite; transform-box: fill-box; transform-origin: top center; }
    .star   { animation: twinkle 3.6s ease-in-out infinite; }
    .shoot  { animation: shoot 11s cubic-bezier(0.16,1,0.3,1) infinite; opacity:0; }
    @keyframes drift   { 0%,100%{transform:translateY(0)} 50%{transform:translateY(-5px)} }
    @keyframes flicker { 0%,100%{opacity:0.9; transform:scaleY(1)} 50%{opacity:0.55; transform:scaleY(0.82)} }
    @keyframes twinkle { 0%,100%{opacity:0.25} 50%{opacity:0.85} }
    @keyframes shoot   { 0%{opacity:0; transform:translate(0,0)} 3%{opacity:0.9} 14%{opacity:0.9} 22%,100%{opacity:0; transform:translate(150px,78px)} }
    @media (prefers-reduced-motion: reduce) {
      .rocket,.flame,.star,.shoot { animation: none; }
      .shoot { opacity:0; }
    }
  </style>

  <rect x="0" y="0" width="870" height="500" rx="22" fill="#FAF9F6"/>

  <!-- ════════ Left: animated space illustration ════════ -->
  <g transform="translate(26,0)">
  <g class="accent">
    <circle class="star" cx="60" cy="74" r="1.7" style="animation-delay:0s"/>
    <circle class="star" cx="206" cy="116" r="1.5" style="animation-delay:1.1s"/>
    <circle class="star" cx="38" cy="250" r="1.5" style="animation-delay:0.5s"/>
    <circle class="star" cx="214" cy="300" r="1.9" style="animation-delay:2.0s"/>
    <circle class="star" cx="96" cy="402" r="1.5" style="animation-delay:1.6s"/>
    <circle class="star" cx="178" cy="40" r="1.3" style="animation-delay:2.6s"/>
    <circle class="star" cx="250" cy="200" r="1.4" style="animation-delay:0.9s"/>
    <circle class="star" cx="28" cy="150" r="1.3" style="animation-delay:3.0s"/>
    <circle class="star" cx="140" cy="58" r="1.3" style="animation-delay:0.3s"/>
    <circle class="star" cx="74" cy="182" r="1.4" style="animation-delay:2.3s"/>
    <circle class="star" cx="32" cy="360" r="1.6" style="animation-delay:0.8s"/>
    <circle class="star" cx="198" cy="244" r="1.5" style="animation-delay:1.4s"/>
    <circle class="star" cx="158" cy="436" r="1.3" style="animation-delay:2.8s"/>
    <circle class="star" cx="108" cy="468" r="1.5" style="animation-delay:1.2s"/>
    <circle class="star" cx="238" cy="356" r="1.4" style="animation-delay:0.6s"/>
    <circle class="star" cx="48" cy="104" r="1.2" style="animation-delay:3.2s"/>
    <circle class="star" cx="228" cy="86" r="1.6" style="animation-delay:1.8s"/>
    <circle class="star" cx="186" cy="470" r="1.3" style="animation-delay:2.1s"/>
    <circle class="star" cx="16" cy="300" r="1.2" style="animation-delay:1.5s"/>
    <circle class="star" cx="250" cy="470" r="1.3" style="animation-delay:0.4s"/>
  </g>
  <path class="accent star" style="animation-delay:0.7s" d="M168 150 C168 158 168 158 176 160 C168 162 168 162 168 170 C168 162 168 162 160 160 C168 158 168 158 168 150 Z"/>
  <path class="accent star" style="animation-delay:1.9s" d="M52 332 C52 338 52 338 58 340 C52 342 52 342 52 348 C52 342 52 342 46 340 C52 338 52 338 52 332 Z"/>
  <path class="accent star" style="animation-delay:2.4s" d="M36 410 C36 417 36 417 43 419 C36 421 36 421 36 428 C36 421 36 421 29 419 C36 417 36 417 36 410 Z"/>
  <path class="accent star" style="animation-delay:1.1s" d="M224 150 C224 157 224 157 231 159 C224 161 224 161 224 168 C224 161 224 161 217 159 C224 157 224 157 224 150 Z"/>

  <g class="shoot">
    <line x1="40" y1="60" x2="64" y2="72" stroke="#D97757" stroke-width="1.6" stroke-linecap="round"/>
    <circle cx="64" cy="72" r="1.8" fill="#D97757"/>
  </g>

  <!-- planet with ring -->
  <ellipse cx="120" cy="318" rx="92" ry="25" transform="rotate(-20 120 318)" fill="none" stroke="#1A1916" stroke-width="2" opacity="0.85"/>
  <circle cx="120" cy="318" r="50" fill="#D97757"/>
  <path d="M83 284 a50 50 0 0 0 17 65 q22 -36 -17 -65 Z" fill="#1A1916" opacity="0.12"/>
  <ellipse cx="120" cy="318" rx="92" ry="25" transform="rotate(-20 120 318)" fill="none" stroke="#1A1916" stroke-width="2" opacity="0.85" stroke-dasharray="150 420"/>

  <!-- rocket -->
  <g class="rocket">
    <path d="M120 120 C108 134 104 154 104 182 L104 200 C104 212 136 212 136 200 L136 182 C136 154 132 134 120 120 Z" fill="#1A1916"/>
    <path d="M104 186 L90 214 L104 206 Z" fill="#D97757"/>
    <path d="M136 186 L150 214 L136 206 Z" fill="#D97757"/>
    <path class="flame" d="M120 208 C128 219 126 235 120 242 C114 235 112 219 120 208 Z" fill="#D97757"/>
    <circle cx="120" cy="164" r="9" fill="#FAF9F6" stroke="#D97757" stroke-width="2.5"/>
  </g>
  </g>

  <!-- ════════ Right: content (lowercase chrome; tech names keep their casing) ════════ -->
  <text class="serif name" x="288" y="88">karthik subramanian</text>
  <text class="sans role" x="290" y="111">eecs @ uc berkeley<tspan fill="#6E6A60">  ·  </tspan><tspan class="accent">regents' scholar</tspan><tspan fill="#6E6A60">  ·  founder · engineer · researcher</tspan></text>

  <line x1="290" y1="129" x2="840" y2="129" stroke="#E6E3DA" stroke-width="1.5"/>

  <text class="sans klbl" x="290" y="156">age</text>
  <text class="sans kval" id="age_data" x="372" y="157">19 years, 0 months, 29 days</text>
  <text class="sans klbl" x="290" y="178">weather</text>
  <text class="sans kval" id="weather_data" x="372" y="179">⛅ 60°F · partly cloudy</text>

  <text class="serif num" id="commit_data" x="290" y="224">1,589</text>
  <text class="sans klbl" x="291" y="242">contributions</text>
  <text class="serif num" id="contrib_data" x="452" y="224">549</text>
  <text class="sans klbl" x="453" y="242">last 14 days</text>
  <text class="serif num" id="repo_data" x="596" y="224">51</text>
  <text class="sans klbl" x="597" y="242">repos</text>
  <text class="serif num" id="years_data" x="724" y="224">5</text>
  <text class="sans klbl" x="725" y="242">years on github</text>

  <line x1="290" y1="266" x2="840" y2="266" stroke="#E6E3DA" stroke-width="1.5"/>

  <text class="sans slbl" x="290" y="289">languages</text>
  <text class="sans sval" x="426" y="289">Rust · Python · TypeScript · C++ · Swift · Kotlin · Java</text>
  <text class="sans slbl" x="290" y="308">web &amp; realtime</text>
  <text class="sans sval" x="426" y="308">Next.js · React Native · WebRTC · LiveKit · Three.js · Mapbox · Deck.gl</text>
  <text class="sans slbl" x="290" y="327">backends &amp; data</text>
  <text class="sans sval" x="426" y="327">PostgreSQL · pgvector · GraphQL · FastAPI · Redis · PySpark · Polars</text>
  <text class="sans slbl" x="290" y="346">cloud &amp; infra</text>
  <text class="sans sval" x="426" y="346">AWS · Kubernetes · Docker · BigQuery · Cloudflare · OpenTelemetry · Dagster</text>
  <text class="sans slbl" x="290" y="365">ai / ml</text>
  <text class="sans sval" x="426" y="365">PyTorch · CUDA · TensorFlow · XGBoost · YOLO · OpenCV · Hugging Face</text>
  <text class="sans slbl" x="290" y="384">hardware</text>
  <text class="sans sval" x="426" y="384">STM32 · FPGA · WPILib · Talon FX · SPARK MAX · Raspberry Pi · SiPM</text>
  <text class="sans slbl" x="290" y="403">scientific</text>
  <text class="sans sval" x="426" y="403">ROOT · Geant4 · PyMC · SciPy · Matplotlib · Jupyter · pandas</text>

  <text class="sans muted" x="290" y="429">writing · stargazing · board games · travel · history &amp; geography · film &amp; tv</text>
  <text class="sans slbl" x="290" y="451">email</text>
  <text class="sans sval" x="372" y="451" font-size="12px">karthik [dot] subramanian [at] berkeley [dot] edu</text>
  <text class="sans slbl" x="290" y="470">socials</text>
  <text class="sans sval" x="372" y="470" font-size="12px">/in/karthik-subramanian-07 · @winner.karthik · karthik07</text>
</svg>