<?xml version='1.0' encoding='UTF-8'?>
<svg xmlns="http://www.w3.org/2000/svg" xmlns:xlink="http://www.w3.org/1999/xlink" width="880" height="500" viewBox="0 0 880 500" role="img" aria-label="karthik subramanian — GitHub profile">
  <style>
    .serif { font-family: Georgia, 'Times New Roman', 'Iowan Old Style', serif; }
    .sans  { font-family: 'Helvetica Neue', Helvetica, Arial, 'Segoe UI', sans-serif; }
    .name  { fill:#1A1916; font-size:34px; letter-spacing:0.2px; }
    .role  { fill:#6E6A60; font-size:13.5px; }
    .klbl  { fill:#9A9488; font-size:10px; letter-spacing:1.4px; }
    .kval  { fill:#1A1916; font-size:13px; }
    .num   { fill:#1A1916; font-size:26px; font-variant-numeric:tabular-nums; }
    .slbl  { fill:#D97757; font-size:10px; letter-spacing:1.4px; }
    .sval  { fill:#34322B; font-size:13px; }
    .muted { fill:#6E6A60; font-size:11.5px; }
    .accent{ fill:#D97757; }

    .rocket { animation: drift 5.5s ease-in-out infinite; transform-box: fill-box; transform-origin: center; }
    .flame  { animation: flicker 0.9s ease-in-out infinite; transform-box: fill-box; transform-origin: top center; }
    .star   { animation: twinkle 3.6s ease-in-out infinite; }
    .shoot  { animation: shoot 11s cubic-bezier(0.16,1,0.3,1) infinite; opacity:0; }
    @keyframes drift   { 0%,100%{transform:translateY(0)} 50%{transform:translateY(-5px)} }
    @keyframes flicker { 0%,100%{opacity:0.9; transform:scaleY(1)} 50%{opacity:0.55; transform:scaleY(0.82)} }
    @keyframes twinkle { 0%,100%{opacity:0.25} 50%{opacity:0.85} }
    @keyframes shoot   { 0%{opacity:0; transform:translate(0,0)} 3%{opacity:0.9} 14%{opacity:0.9} 22%,100%{opacity:0; transform:translate(150px,78px)} }
    @media (prefers-reduced-motion: reduce) {
      .rocket,.flame,.star,.shoot { animation: none; }
      .shoot { opacity:0; }
    }
  </style>

  <rect x="0" y="0" width="880" height="500" rx="22" fill="#FAF9F6"/>

  <!-- ════════ Left: animated space illustration ════════ -->
  <g class="accent">
    <circle class="star" cx="60" cy="74" r="1.7" style="animation-delay:0s"/>
    <circle class="star" cx="206" cy="116" r="1.5" style="animation-delay:1.1s"/>
    <circle class="star" cx="38" cy="250" r="1.5" style="animation-delay:0.5s"/>
    <circle class="star" cx="214" cy="300" r="1.9" style="animation-delay:2.0s"/>
    <circle class="star" cx="96" cy="402" r="1.5" style="animation-delay:1.6s"/>
    <circle class="star" cx="178" cy="40" r="1.3" style="animation-delay:2.6s"/>
    <circle class="star" cx="250" cy="200" r="1.4" style="animation-delay:0.9s"/>
    <circle class="star" cx="28" cy="150" r="1.3" style="animation-delay:3.0s"/>
  </g>
  <path class="accent star" style="animation-delay:0.7s" d="M168 150 C168 158 168 158 176 160 C168 162 168 162 168 170 C168 162 168 162 160 160 C168 158 168 158 168 150 Z"/>
  <path class="accent star" style="animation-delay:1.9s" d="M52 332 C52 338 52 338 58 340 C52 342 52 342 52 348 C52 342 52 342 46 340 C52 338 52 338 52 332 Z"/>

  <g class="shoot">
    <line x1="40" y1="60" x2="64" y2="72" stroke="#D97757" stroke-width="1.6" stroke-linecap="round"/>
    <circle cx="64" cy="72" r="1.8" fill="#D97757"/>
  </g>

  <!-- planet with ring -->
  <ellipse cx="120" cy="318" rx="92" ry="25" transform="rotate(-20 120 318)" fill="none" stroke="#1A1916" stroke-width="2" opacity="0.85"/>
  <circle cx="120" cy="318" r="50" fill="#D97757"/>
  <path d="M83 284 a50 50 0 0 0 17 65 q22 -36 -17 -65 Z" fill="#1A1916" opacity="0.12"/>
  <ellipse cx="120" cy="318" rx="92" ry="25" transform="rotate(-20 120 318)" fill="none" stroke="#1A1916" stroke-width="2" opacity="0.85" stroke-dasharray="150 420"/>

  <!-- rocket -->
  <g class="rocket">
    <path d="M120 120 C108 134 104 154 104 182 L104 200 C104 212 136 212 136 200 L136 182 C136 154 132 134 120 120 Z" fill="#1A1916"/>
    <path d="M104 186 L90 214 L104 206 Z" fill="#D97757"/>
    <path d="M136 186 L150 214 L136 206 Z" fill="#D97757"/>
    <path class="flame" d="M120 208 C128 219 126 235 120 242 C114 235 112 219 120 208 Z" fill="#D97757"/>
    <circle cx="120" cy="164" r="9" fill="#FAF9F6" stroke="#D97757" stroke-width="2.5"/>
  </g>

  <!-- ════════ Right: content (lowercase chrome; tech names keep their casing) ════════ -->
  <text class="serif name" x="288" y="88">karthik subramanian</text>
  <text class="sans role" x="290" y="111">eecs @ uc berkeley<tspan fill="#6E6A60">  ·  </tspan><tspan class="accent">regents' scholar</tspan><tspan fill="#6E6A60">  ·  founder · engineer · researcher</tspan></text>

  <line x1="290" y1="129" x2="850" y2="129" stroke="#E6E3DA" stroke-width="1.5"/>

  <text class="sans klbl" x="290" y="156">age</text>
  <text class="sans kval" id="age_data" x="372" y="157">19 years, 0 months, 19 days</text>
  <text class="sans klbl" x="290" y="178">weather</text>
  <text class="sans kval" id="weather_data" x="372" y="179">☁️ 55°F · overcast</text>

  <text class="serif num" id="commit_data" x="290" y="224">1,206</text>
  <text class="sans klbl" x="291" y="242">commits</text>
  <text class="serif num" id="contrib_data" x="406" y="224">941</text>
  <text class="sans klbl" x="407" y="242">this year</text>
  <text class="serif num" id="repo_data" x="556" y="224">41</text>
  <text class="sans klbl" x="557" y="242">repos</text>
  <text class="serif num" id="years_data" x="672" y="224">4</text>
  <text class="sans klbl" x="673" y="242">on github</text>

  <line x1="290" y1="266" x2="850" y2="266" stroke="#E6E3DA" stroke-width="1.5"/>

  <text class="sans slbl" x="290" y="290">languages</text>
  <text class="sans sval" x="426" y="290">Rust · Python · TypeScript · C++ · Swift · Kotlin</text>
  <text class="sans slbl" x="290" y="310">web &amp; realtime</text>
  <text class="sans sval" x="426" y="310">Next.js · React Native · WebRTC · LiveKit · Three.js</text>
  <text class="sans slbl" x="290" y="330">backends &amp; data</text>
  <text class="sans sval" x="426" y="330">PostgreSQL · pgvector · GraphQL · FastAPI · Redis</text>
  <text class="sans slbl" x="290" y="350">cloud &amp; infra</text>
  <text class="sans sval" x="426" y="350">AWS · Kubernetes · Docker · BigQuery · Cloudflare</text>
  <text class="sans slbl" x="290" y="370">ai / ml &amp; agents</text>
  <text class="sans sval" x="426" y="370">PyTorch · CUDA · Claude · YOLO · Whisper · Groq</text>
  <text class="sans slbl" x="290" y="390">hardware</text>
  <text class="sans sval" x="426" y="390">STM32 · FPGA · Arduino · Raspberry Pi · Talon FX</text>

  <text class="sans muted" x="290" y="418">writing · stargazing · philosophy · board games · travel</text>
  <text class="sans slbl" x="290" y="441">email</text>
  <text class="sans sval" x="372" y="441" font-size="12px">karthik [dot] subramanian [at] berkeley [dot] edu</text>
  <text class="sans slbl" x="290" y="461">links</text>
  <text class="sans sval" x="372" y="461" font-size="12px">/in/karthik-subramanian-07 · @winner.karthik · karthik07</text>
</svg>